<svg xmlns="http://www.w3.org/2000/svg" xmlns:xlink="http://www.w3.org/1999/xlink" xml:space="preserve" version="1.1" style="shape-rendering:geometricPrecision;text-rendering:geometricPrecision;image-rendering:optimizeQuality;" viewBox="0 0 847 847" x="0px" y="0px" fill-rule="evenodd" clip-rule="evenodd">
  <!-- Plus by Bismillah from the Noun Project -->
  <defs>
    <style type="text/css">
      .fil0 {fill: #ccc}
    </style>
  </defs>
  <g>
    <path class="fil0" d="M356 9c45,0 90,0 134,0 19,0 35,15 35,34 0,93 0,186 0,279 93,0 186,0 278,0 19,0 35,16 35,34 0,45 0,90 0,134 0,19 -16,35 -35,35 -92,0 -185,0 -278,0 0,93 0,185 0,278 0,19 -16,35 -35,35 -44,0 -89,0 -134,0 -18,0 -34,-16 -34,-35 0,-93 0,-185 0,-278 -93,0 -186,0 -279,0 -19,0 -34,-16 -34,-35 0,-44 0,-89 0,-134 0,-18 15,-34 34,-34 93,0 186,0 279,0 0,-93 0,-186 0,-279 0,-19 16,-34 34,-34z"/>
  </g>
</svg>
